<?xml version="1.0" encoding="UTF-8"?>
<svg width="77px" height="52px" viewBox="0 0 77 52" version="1.1" xmlns="http://www.w3.org/2000/svg" xmlns:xlink="http://www.w3.org/1999/xlink">
  <path d="M75.671,2.323 C73.586,0.239 3.168,0.77 1.617,2.323 C-0.061,4.001 -0.067,48.356 1.617,50.036 C2.175,50.595 13.768,50.932 27.624,51.048 L30.692,42.562 C30.692,42.562 32.679,34.522 38.612,34.522 C44.869,34.522 47.602,44.197 47.602,44.197 L50.157,51.045 C63.79,50.929 75.114,50.592 75.671,50.037 C77.224,48.483 77.672,4.324 75.671,2.323 Z M18.572,35.582 C12.509,35.582 7.594,30.668 7.594,24.603 C7.594,18.54 12.509,13.625 18.572,13.625 C24.635,13.625 29.551,18.54 29.551,24.603 C29.551,30.668 24.635,35.582 18.572,35.582 Z M58.334,35.582 C52.271,35.582 47.355,30.668 47.355,24.603 C47.355,18.54 52.271,13.625 58.334,13.625 C64.396,13.625 69.312,18.54 69.312,24.603 C69.312,30.668 64.396,35.582 58.334,35.582 Z"></path>
</svg>
